<?xml version="1.0" encoding="utf-8"?>
<svg xmlns="http://www.w3.org/2000/svg" viewBox="0 0 64 64" width="24" height="24">
  <path d="M32 6C17 6 16.5 24 11 31C11 33.728954 17.622035 41.405924 24.839844 44.279297L24.574219 47.335938L9 53L9.4394531 54.660156C9.7594531 56.590156 11.430625 58 13.390625 58L39.640625 58L40.410156 56.089844L46.189453 49.800781L39.425781 47.337891L39.191406 44.638672C46.586699 42.149562 52 34.424347 52 33C52 27 48.508 6 32 6 z M 35 15.5L36 20C38.111093 20 39.708221 18.526841 40.480469 17.646484C41.760535 20.04678 42 22.815747 42 24.5L42 27.5L42.015625 28.050781L42.349609 28.464844C42.376609 28.497844 43 29.277 43 30.5C43 32.179 41.59875 33.300688 41.59375 33.304688L41.232422 33.578125L41.082031 34.007812C39.092031 39.727812 34.646 44 32 44C29.354 44 24.907969 39.727812 22.917969 34.007812L22.767578 33.578125L22.40625 33.304688C22.39225 33.293687 21 32.191 21 30.5C21 29.277 21.623719 28.497469 21.636719 28.480469L22 28.058594L22 27L22 24.5C22 24.352325 22.015424 24.155599 22.019531 23.992188C22.079455 23.972166 31.013396 20.98158 35 15.5 z M 60.292969 40.003906C59.610719 39.971406 59.154297 40.166016 59.154297 40.166016L56.021484 43.298828L60.701172 47.978516L63.833984 44.845703C63.833984 44.845703 64.614922 43.025078 62.794922 41.205078C61.884922 40.295078 60.975219 40.036406 60.292969 40.003906 z M 54.123047 45.197266L42.126953 57.195312L40.128906 62.181641C39.703906 63.243641 40.757359 64.296094 41.818359 63.871094L46.804688 61.873047L57.986328 50.691406L54.123047 45.197266 z M 27.744141 45.498047C29.184141 46.450047 30.646 47 32 47C33.354 47 34.816859 46.450047 36.255859 45.498047L36.832031 52.123047C35.818233 52.577795 34.289913 53 32 53C29.710087 53 28.181767 52.577795 27.167969 52.123047L27.744141 45.498047 z" fill="#969696" />
</svg>