<?xml version="1.0" encoding="utf-8"?>
<svg xmlns="http://www.w3.org/2000/svg" viewBox="0 0 50 50" width="24" height="24">
  <path d="M21 3C11.601563 3 4 10.601563 4 20C4 29.398438 11.601563 37 21 37C24.355469 37 27.460938 36.015625 30.09375 34.34375L42.375 46.625L46.625 42.375L34.5 30.28125C36.679688 27.421875 38 23.878906 38 20C38 10.601563 30.398438 3 21 3 Z M 21 7C28.199219 7 34 12.800781 34 20C34 27.199219 28.199219 33 21 33C13.800781 33 8 27.199219 8 20C8 12.800781 13.800781 7 21 7Z" fill="#969696" />
</svg>